<svg xmlns="http://www.w3.org/2000/svg" width="1280" height="640" viewBox="0 0 1280 640" role="img" aria-labelledby="title desc">
  <title id="title">DevOps Automation Toolkit</title><desc id="desc">Portfolio social preview for a 20-tool evidence-first command line interface.</desc>
  <defs><linearGradient id="bg" x1="0" y1="0" x2="1" y2="1"><stop stop-color="#071426"/><stop offset="1" stop-color="#1b1626"/></linearGradient><linearGradient id="accent" x1="0" y1="0" x2="1" y2="1"><stop stop-color="#fb7185"/><stop offset="1" stop-color="#f97316"/></linearGradient><pattern id="grid" width="48" height="48" patternUnits="userSpaceOnUse"><path d="M48 0H0V48" fill="none" stroke="#22d3ee" stroke-opacity=".05"/></pattern></defs>
  <rect width="1280" height="640" fill="url(#bg)"/><rect width="1280" height="640" fill="url(#grid)"/><circle cx="1120" cy="60" r="220" fill="#f97316" opacity=".06"/>
  <text x="90" y="96" fill="#fdba74" font-family="Arial, sans-serif" font-size="22" font-weight="700" letter-spacing="4">CLOUD &amp; PLATFORM ENGINEERING</text><rect x="90" y="122" width="82" height="6" rx="3" fill="url(#accent)"/>
  <text x="90" y="235" fill="#f8fafc" font-family="Arial, sans-serif" font-size="56" font-weight="800">DEVOPS AUTOMATION</text><text x="90" y="303" fill="#f8fafc" font-family="Arial, sans-serif" font-size="56" font-weight="800">TOOLKIT</text>
  <text x="92" y="364" fill="#cbd5e1" font-family="Arial, sans-serif" font-size="28">20 Tools  •  One CLI  •  Evidence-First</text>
  <g transform="translate(745 112)" font-family="Arial, sans-serif">
    <rect x="0" y="0" width="430" height="190" rx="20" fill="#0b1423" stroke="#fb7185" stroke-width="2"/><circle cx="28" cy="27" r="6" fill="#fb7185"/><circle cx="48" cy="27" r="6" fill="#fbbf24"/><circle cx="68" cy="27" r="6" fill="#4ade80"/>
    <g font-family="Consolas, monospace" font-size="15"><text x="26" y="72" fill="#67e8f9">$ devops-toolkit render-sample</text><text x="26" y="103" fill="#cbd5e1">normalizing findings...</text><text x="26" y="134" fill="#86efac">✓ redacted · deterministic</text><text x="26" y="165" fill="#94a3b8">severity · confidence · evidence</text></g>
    <path d="M215 190v50" stroke="#22d3ee" stroke-width="3"/>
    <g text-anchor="middle" font-weight="800"><rect x="5" y="240" width="126" height="102" rx="16" fill="#0e2639" stroke="#22d3ee"/><text x="68" y="285" fill="#a5f3fc" font-size="18">JSON</text><text x="68" y="312" fill="#64748b" font-size="12">SCHEMA</text><rect x="152" y="240" width="126" height="102" rx="16" fill="#2a1720" stroke="#fb7185"/><text x="215" y="285" fill="#fecdd3" font-size="18">MARKDOWN</text><text x="215" y="312" fill="#64748b" font-size="12">HUMAN</text><rect x="299" y="240" width="126" height="102" rx="16" fill="#211b3c" stroke="#a78bfa"/><text x="362" y="285" fill="#ddd6fe" font-size="18">SARIF</text><text x="362" y="312" fill="#64748b" font-size="12">CODE SCAN</text></g>
    <rect x="55" y="382" width="320" height="44" rx="22" fill="#164e63"/><circle cx="82" cy="404" r="7" fill="#22d3ee"/><text x="101" y="411" fill="#cffafe" font-size="15" font-weight="800">FIXTURE + SNAPSHOT VALIDATION</text>
  </g>
  <text x="90" y="560" fill="#94a3b8" font-family="Arial, sans-serif" font-size="18">READ-ONLY-FIRST · DETERMINISTIC REPORTS</text><rect x="90" y="582" width="1090" height="2" fill="#334155"/>
</svg>
